<mxfile host="app.diagrams.net" agent="Mozilla/5.0 (X11; Linux x86_64) AppleWebKit/537.36 (KHTML, like Gecko) Chrome/127.0.0.0 Safari/537.36" version="24.7.13">
  <diagram name="Page-1" id="oMWjA9xX0rjNErkSmDG2">
    <mxGraphModel dx="797" dy="1180" grid="1" gridSize="10" guides="1" tooltips="1" connect="1" arrows="1" fold="1" page="1" pageScale="1" pageWidth="827" pageHeight="1169" math="0" shadow="0">
      <root>
        <mxCell id="0" />
        <mxCell id="1" parent="0" />
        <mxCell id="9idynjnz6ndo41R_Wl33-2" value="Suni" style="ellipse;whiteSpace=wrap;html=1;aspect=fixed;fillColor=#fff2cc;strokeColor=#d6b656;" vertex="1" parent="1">
          <mxGeometry x="240" y="390" width="50" height="50" as="geometry" />
        </mxCell>
        <mxCell id="9idynjnz6ndo41R_Wl33-4" value="Nivo+&lt;div&gt;Cabo&lt;/div&gt;" style="ellipse;whiteSpace=wrap;html=1;aspect=fixed;fillColor=#fff2cc;strokeColor=#d6b656;" vertex="1" parent="1">
          <mxGeometry x="110" y="400" width="50" height="50" as="geometry" />
        </mxCell>
        <mxCell id="9idynjnz6ndo41R_Wl33-7" value="Lenv+&lt;div&gt;Pem&lt;/div&gt;" style="ellipse;whiteSpace=wrap;html=1;aspect=fixed;fillColor=#fff2cc;strokeColor=#d6b656;" vertex="1" parent="1">
          <mxGeometry x="150" y="300" width="50" height="50" as="geometry" />
        </mxCell>
        <mxCell id="9idynjnz6ndo41R_Wl33-8" value="Cabo" style="ellipse;whiteSpace=wrap;html=1;aspect=fixed;fillColor=#fff2cc;strokeColor=#d6b656;" vertex="1" parent="1">
          <mxGeometry x="260" y="280" width="50" height="50" as="geometry" />
        </mxCell>
        <mxCell id="9idynjnz6ndo41R_Wl33-9" value="Pazo" style="ellipse;whiteSpace=wrap;html=1;aspect=fixed;fillColor=#fff2cc;strokeColor=#d6b656;" vertex="1" parent="1">
          <mxGeometry x="360" y="330" width="50" height="50" as="geometry" />
        </mxCell>
        <mxCell id="9idynjnz6ndo41R_Wl33-10" value="Sora" style="ellipse;whiteSpace=wrap;html=1;aspect=fixed;fillColor=#fff2cc;strokeColor=#d6b656;" vertex="1" parent="1">
          <mxGeometry x="380" y="440" width="50" height="50" as="geometry" />
        </mxCell>
        <mxCell id="9idynjnz6ndo41R_Wl33-11" value="Tivo" style="ellipse;whiteSpace=wrap;html=1;aspect=fixed;fillColor=#fff2cc;strokeColor=#d6b656;" vertex="1" parent="1">
          <mxGeometry x="500" y="450" width="50" height="50" as="geometry" />
        </mxCell>
        <mxCell id="9idynjnz6ndo41R_Wl33-12" value="Ave+&lt;div&gt;Axi&lt;/div&gt;" style="ellipse;whiteSpace=wrap;html=1;aspect=fixed;fillColor=#fff2cc;strokeColor=#d6b656;" vertex="1" parent="1">
          <mxGeometry x="180" y="500" width="50" height="50" as="geometry" />
        </mxCell>
        <mxCell id="9idynjnz6ndo41R_Wl33-13" value="Nivo+&lt;div&gt;Ipi&lt;/div&gt;" style="ellipse;whiteSpace=wrap;html=1;aspect=fixed;fillColor=#fff2cc;strokeColor=#d6b656;" vertex="1" parent="1">
          <mxGeometry x="290" y="500" width="50" height="50" as="geometry" />
        </mxCell>
        <mxCell id="9idynjnz6ndo41R_Wl33-14" value="" style="endArrow=none;html=1;rounded=0;exitX=1;exitY=0.5;exitDx=0;exitDy=0;entryX=0;entryY=0.5;entryDx=0;entryDy=0;" edge="1" parent="1" source="9idynjnz6ndo41R_Wl33-4" target="9idynjnz6ndo41R_Wl33-2">
          <mxGeometry width="50" height="50" relative="1" as="geometry">
            <mxPoint x="390" y="510" as="sourcePoint" />
            <mxPoint x="440" y="460" as="targetPoint" />
          </mxGeometry>
        </mxCell>
        <mxCell id="9idynjnz6ndo41R_Wl33-15" value="" style="endArrow=none;html=1;rounded=0;exitX=1;exitY=1;exitDx=0;exitDy=0;" edge="1" parent="1" source="9idynjnz6ndo41R_Wl33-7" target="9idynjnz6ndo41R_Wl33-2">
          <mxGeometry width="50" height="50" relative="1" as="geometry">
            <mxPoint x="170" y="435" as="sourcePoint" />
            <mxPoint x="250" y="425" as="targetPoint" />
          </mxGeometry>
        </mxCell>
        <mxCell id="9idynjnz6ndo41R_Wl33-16" value="" style="endArrow=none;html=1;rounded=0;exitX=0.5;exitY=1;exitDx=0;exitDy=0;entryX=0.5;entryY=0;entryDx=0;entryDy=0;" edge="1" parent="1" source="9idynjnz6ndo41R_Wl33-8" target="9idynjnz6ndo41R_Wl33-2">
          <mxGeometry width="50" height="50" relative="1" as="geometry">
            <mxPoint x="203" y="353" as="sourcePoint" />
            <mxPoint x="257" y="407" as="targetPoint" />
          </mxGeometry>
        </mxCell>
        <mxCell id="9idynjnz6ndo41R_Wl33-17" value="" style="endArrow=none;html=1;rounded=0;exitX=0.06;exitY=0.7;exitDx=0;exitDy=0;entryX=1;entryY=0;entryDx=0;entryDy=0;exitPerimeter=0;" edge="1" parent="1" source="9idynjnz6ndo41R_Wl33-9" target="9idynjnz6ndo41R_Wl33-2">
          <mxGeometry width="50" height="50" relative="1" as="geometry">
            <mxPoint x="295" y="340" as="sourcePoint" />
            <mxPoint x="275" y="400" as="targetPoint" />
          </mxGeometry>
        </mxCell>
        <mxCell id="9idynjnz6ndo41R_Wl33-19" value="" style="endArrow=none;html=1;rounded=0;exitX=0.66;exitY=0.02;exitDx=0;exitDy=0;entryX=0;entryY=1;entryDx=0;entryDy=0;exitPerimeter=0;" edge="1" parent="1" source="9idynjnz6ndo41R_Wl33-12" target="9idynjnz6ndo41R_Wl33-2">
          <mxGeometry width="50" height="50" relative="1" as="geometry">
            <mxPoint x="390" y="475" as="sourcePoint" />
            <mxPoint x="300" y="425" as="targetPoint" />
          </mxGeometry>
        </mxCell>
        <mxCell id="9idynjnz6ndo41R_Wl33-20" value="" style="endArrow=none;html=1;rounded=0;exitX=0.32;exitY=0.04;exitDx=0;exitDy=0;entryX=0.7;entryY=0.94;entryDx=0;entryDy=0;exitPerimeter=0;entryPerimeter=0;" edge="1" parent="1" source="9idynjnz6ndo41R_Wl33-13" target="9idynjnz6ndo41R_Wl33-2">
          <mxGeometry width="50" height="50" relative="1" as="geometry">
            <mxPoint x="223" y="511" as="sourcePoint" />
            <mxPoint x="257" y="443" as="targetPoint" />
          </mxGeometry>
        </mxCell>
        <mxCell id="9idynjnz6ndo41R_Wl33-25" value="" style="endArrow=none;html=1;rounded=0;exitX=0;exitY=0.5;exitDx=0;exitDy=0;entryX=0.972;entryY=0.64;entryDx=0;entryDy=0;entryPerimeter=0;curved=1;" edge="1" parent="1" source="9idynjnz6ndo41R_Wl33-10" target="9idynjnz6ndo41R_Wl33-2">
          <mxGeometry width="50" height="50" relative="1" as="geometry">
            <mxPoint x="380" y="450" as="sourcePoint" />
            <mxPoint x="300" y="482" as="targetPoint" />
            <Array as="points">
              <mxPoint x="320" y="460" />
            </Array>
          </mxGeometry>
        </mxCell>
        <mxCell id="9idynjnz6ndo41R_Wl33-27" value="" style="endArrow=none;html=1;rounded=0;exitX=0;exitY=0.5;exitDx=0;exitDy=0;entryX=0.964;entryY=0.656;entryDx=0;entryDy=0;entryPerimeter=0;curved=1;" edge="1" parent="1" source="9idynjnz6ndo41R_Wl33-10" target="9idynjnz6ndo41R_Wl33-2">
          <mxGeometry width="50" height="50" relative="1" as="geometry">
            <mxPoint x="390" y="475" as="sourcePoint" />
            <mxPoint x="299" y="432" as="targetPoint" />
            <Array as="points">
              <mxPoint x="340" y="415" />
            </Array>
          </mxGeometry>
        </mxCell>
        <mxCell id="9idynjnz6ndo41R_Wl33-28" value="" style="endArrow=none;html=1;rounded=0;exitX=0.5;exitY=1;exitDx=0;exitDy=0;entryX=0.4;entryY=0;entryDx=0;entryDy=0;entryPerimeter=0;" edge="1" parent="1" source="9idynjnz6ndo41R_Wl33-9" target="9idynjnz6ndo41R_Wl33-10">
          <mxGeometry width="50" height="50" relative="1" as="geometry">
            <mxPoint x="373" y="375" as="sourcePoint" />
            <mxPoint x="293" y="407" as="targetPoint" />
          </mxGeometry>
        </mxCell>
        <mxCell id="9idynjnz6ndo41R_Wl33-29" value="" style="endArrow=none;html=1;rounded=0;exitX=1;exitY=0.5;exitDx=0;exitDy=0;entryX=0;entryY=0.5;entryDx=0;entryDy=0;" edge="1" parent="1" source="9idynjnz6ndo41R_Wl33-10" target="9idynjnz6ndo41R_Wl33-11">
          <mxGeometry width="50" height="50" relative="1" as="geometry">
            <mxPoint x="395" y="390" as="sourcePoint" />
            <mxPoint x="410" y="450" as="targetPoint" />
          </mxGeometry>
        </mxCell>
        <mxCell id="9idynjnz6ndo41R_Wl33-31" value="PFS" style="text;html=1;align=center;verticalAlign=middle;whiteSpace=wrap;rounded=0;fontStyle=1;fontSize=16;" vertex="1" parent="1">
          <mxGeometry x="255" y="220" width="60" height="30" as="geometry" />
        </mxCell>
        <mxCell id="9idynjnz6ndo41R_Wl33-32" value="Suni" style="ellipse;whiteSpace=wrap;html=1;aspect=fixed;fillColor=#fff2cc;strokeColor=#d6b656;" vertex="1" parent="1">
          <mxGeometry x="750" y="390" width="50" height="50" as="geometry" />
        </mxCell>
        <mxCell id="9idynjnz6ndo41R_Wl33-33" value="Nivo+&lt;div&gt;Ipi&lt;/div&gt;" style="ellipse;whiteSpace=wrap;html=1;aspect=fixed;fillColor=#fff2cc;strokeColor=#d6b656;" vertex="1" parent="1">
          <mxGeometry x="630" y="410" width="50" height="50" as="geometry" />
        </mxCell>
        <mxCell id="9idynjnz6ndo41R_Wl33-34" value="Ave+Axi" style="ellipse;whiteSpace=wrap;html=1;aspect=fixed;fillColor=#fff2cc;strokeColor=#d6b656;" vertex="1" parent="1">
          <mxGeometry x="660" y="300" width="50" height="50" as="geometry" />
        </mxCell>
        <mxCell id="9idynjnz6ndo41R_Wl33-35" value="Cabo" style="ellipse;whiteSpace=wrap;html=1;aspect=fixed;fillColor=#fff2cc;strokeColor=#d6b656;" vertex="1" parent="1">
          <mxGeometry x="790" y="280" width="50" height="50" as="geometry" />
        </mxCell>
        <mxCell id="9idynjnz6ndo41R_Wl33-36" value="Nivo+&lt;div&gt;Cabo&lt;/div&gt;" style="ellipse;whiteSpace=wrap;html=1;aspect=fixed;fillColor=#fff2cc;strokeColor=#d6b656;" vertex="1" parent="1">
          <mxGeometry x="870" y="370" width="50" height="50" as="geometry" />
        </mxCell>
        <mxCell id="9idynjnz6ndo41R_Wl33-38" value="Pazo" style="ellipse;whiteSpace=wrap;html=1;aspect=fixed;fillColor=#fff2cc;strokeColor=#d6b656;" vertex="1" parent="1">
          <mxGeometry x="700" y="500" width="50" height="50" as="geometry" />
        </mxCell>
        <mxCell id="9idynjnz6ndo41R_Wl33-39" value="Lenv+&lt;div&gt;Pem&lt;/div&gt;" style="ellipse;whiteSpace=wrap;html=1;aspect=fixed;fillColor=#fff2cc;strokeColor=#d6b656;" vertex="1" parent="1">
          <mxGeometry x="827" y="490" width="50" height="50" as="geometry" />
        </mxCell>
        <mxCell id="9idynjnz6ndo41R_Wl33-40" value="" style="endArrow=none;html=1;rounded=0;exitX=1;exitY=0.5;exitDx=0;exitDy=0;entryX=0;entryY=0.5;entryDx=0;entryDy=0;" edge="1" parent="1" source="9idynjnz6ndo41R_Wl33-33" target="9idynjnz6ndo41R_Wl33-32">
          <mxGeometry width="50" height="50" relative="1" as="geometry">
            <mxPoint x="900" y="510" as="sourcePoint" />
            <mxPoint x="950" y="460" as="targetPoint" />
          </mxGeometry>
        </mxCell>
        <mxCell id="9idynjnz6ndo41R_Wl33-41" value="" style="endArrow=none;html=1;rounded=0;exitX=1;exitY=1;exitDx=0;exitDy=0;" edge="1" parent="1" source="9idynjnz6ndo41R_Wl33-34" target="9idynjnz6ndo41R_Wl33-32">
          <mxGeometry width="50" height="50" relative="1" as="geometry">
            <mxPoint x="680" y="435" as="sourcePoint" />
            <mxPoint x="760" y="425" as="targetPoint" />
          </mxGeometry>
        </mxCell>
        <mxCell id="9idynjnz6ndo41R_Wl33-42" value="" style="endArrow=none;html=1;rounded=0;exitX=0.5;exitY=1;exitDx=0;exitDy=0;entryX=0.5;entryY=0;entryDx=0;entryDy=0;" edge="1" parent="1" source="9idynjnz6ndo41R_Wl33-35" target="9idynjnz6ndo41R_Wl33-32">
          <mxGeometry width="50" height="50" relative="1" as="geometry">
            <mxPoint x="713" y="353" as="sourcePoint" />
            <mxPoint x="767" y="407" as="targetPoint" />
          </mxGeometry>
        </mxCell>
        <mxCell id="9idynjnz6ndo41R_Wl33-43" value="" style="endArrow=none;html=1;rounded=0;exitX=0.06;exitY=0.7;exitDx=0;exitDy=0;entryX=1;entryY=0.5;entryDx=0;entryDy=0;exitPerimeter=0;" edge="1" parent="1" source="9idynjnz6ndo41R_Wl33-36" target="9idynjnz6ndo41R_Wl33-32">
          <mxGeometry width="50" height="50" relative="1" as="geometry">
            <mxPoint x="805" y="340" as="sourcePoint" />
            <mxPoint x="785" y="400" as="targetPoint" />
          </mxGeometry>
        </mxCell>
        <mxCell id="9idynjnz6ndo41R_Wl33-44" value="" style="endArrow=none;html=1;rounded=0;exitX=0.66;exitY=0.02;exitDx=0;exitDy=0;entryX=0;entryY=1;entryDx=0;entryDy=0;exitPerimeter=0;" edge="1" parent="1" source="9idynjnz6ndo41R_Wl33-38" target="9idynjnz6ndo41R_Wl33-32">
          <mxGeometry width="50" height="50" relative="1" as="geometry">
            <mxPoint x="900" y="475" as="sourcePoint" />
            <mxPoint x="810" y="425" as="targetPoint" />
          </mxGeometry>
        </mxCell>
        <mxCell id="9idynjnz6ndo41R_Wl33-45" value="" style="endArrow=none;html=1;rounded=0;exitX=0.32;exitY=0.04;exitDx=0;exitDy=0;entryX=0.7;entryY=0.94;entryDx=0;entryDy=0;exitPerimeter=0;entryPerimeter=0;" edge="1" parent="1" source="9idynjnz6ndo41R_Wl33-39" target="9idynjnz6ndo41R_Wl33-32">
          <mxGeometry width="50" height="50" relative="1" as="geometry">
            <mxPoint x="733" y="511" as="sourcePoint" />
            <mxPoint x="767" y="443" as="targetPoint" />
          </mxGeometry>
        </mxCell>
        <mxCell id="9idynjnz6ndo41R_Wl33-49" value="OS" style="text;html=1;align=center;verticalAlign=middle;whiteSpace=wrap;rounded=0;fontStyle=1;fontSize=16;" vertex="1" parent="1">
          <mxGeometry x="750" y="220" width="60" height="30" as="geometry" />
        </mxCell>
      </root>
    </mxGraphModel>
  </diagram>
</mxfile>
